<svg width="776" height="163" viewBox="0 0 776 163" fill="none" xmlns="http://www.w3.org/2000/svg">
<g filter="url(#filter0_d_2531_10343)">
<mask id="path-1-outside-1_2531_10343" maskUnits="userSpaceOnUse" x="14.5625" y="8.70935" width="199" height="133" fill="black">
<rect fill="white" x="14.5625" y="8.70935" width="199" height="133"/>
<path d="M61.7781 115.456L52.9495 135.709H23.5208L77.1848 14.5325H108.171L161.836 135.709H132.407L123.578 115.456H61.7781ZM112.499 89.489L92.7647 43.9611L73.0302 89.489H112.499ZM207.625 135.709H179.928V14.5325H207.625V135.709Z"/>
</mask>
<path d="M61.7781 115.456V110.088H58.2622L56.8574 113.311L61.7781 115.456ZM52.9495 135.709V141.077H56.4653L57.8702 137.854L52.9495 135.709ZM23.5208 135.709L18.6127 133.536L15.2729 141.077H23.5208V135.709ZM77.1848 14.5325V9.1646H73.6913L72.2767 12.3589L77.1848 14.5325ZM108.171 14.5325L113.08 12.3589L111.665 9.1646H108.171V14.5325ZM161.836 135.709V141.077H170.083L166.744 133.536L161.836 135.709ZM132.407 135.709L127.486 137.854L128.891 141.077H132.407V135.709ZM123.578 115.456L128.499 113.311L127.094 110.088H123.578V115.456ZM112.499 89.489V94.8569H120.676L117.424 87.3542L112.499 89.489ZM92.7647 43.9611L97.6898 41.8263L92.7647 30.464L87.8396 41.8263L92.7647 43.9611ZM73.0302 89.489L68.1051 87.3542L64.853 94.8569H73.0302V89.489ZM61.7781 115.456L56.8574 113.311L48.0288 133.564L52.9495 135.709L57.8702 137.854L66.6988 117.6L61.7781 115.456ZM52.9495 135.709V130.341H23.5208V135.709V141.077H52.9495V135.709ZM23.5208 135.709L28.4289 137.883L82.0929 16.7061L77.1848 14.5325L72.2767 12.3589L18.6127 133.536L23.5208 135.709ZM77.1848 14.5325V19.9003H108.171V14.5325V9.1646H77.1848V14.5325ZM108.171 14.5325L103.263 16.7061L156.927 137.883L161.836 135.709L166.744 133.536L113.08 12.3589L108.171 14.5325ZM161.836 135.709V130.341H132.407V135.709V141.077H161.836V135.709ZM132.407 135.709L137.328 133.564L128.499 113.311L123.578 115.456L118.658 117.6L127.486 137.854L132.407 135.709ZM123.578 115.456V110.088H61.7781V115.456V120.823H123.578V115.456ZM112.499 89.489L117.424 87.3542L97.6898 41.8263L92.7647 43.9611L87.8396 46.096L107.574 91.6239L112.499 89.489ZM92.7647 43.9611L87.8396 41.8263L68.1051 87.3542L73.0302 89.489L77.9553 91.6239L97.6898 46.096L92.7647 43.9611ZM73.0302 89.489V94.8569H112.499V89.489V84.1212H73.0302V89.489ZM207.625 135.709V141.077H212.993V135.709H207.625ZM179.928 135.709H174.56V141.077H179.928V135.709ZM179.928 14.5325V9.1646H174.56V14.5325H179.928ZM207.625 14.5325H212.993V9.1646H207.625V14.5325ZM207.625 135.709V130.341H179.928V135.709V141.077H207.625V135.709ZM179.928 135.709H185.296V14.5325H179.928H174.56V135.709H179.928ZM179.928 14.5325V19.9003H207.625V14.5325V9.1646H179.928V14.5325ZM207.625 14.5325H202.258V135.709H207.625H212.993V14.5325H207.625Z" fill="url(#paint0_linear_2531_10343)" mask="url(#path-1-outside-1_2531_10343)"/>
</g>
<g filter="url(#filter1_d_2531_10343)">
<path d="M241.31 36.1689C241.31 20.9262 247.782 14.4542 263.024 14.4542C276.09 14.4542 282.683 19.2931 284.316 30.1807H275.606C274.094 24.7974 270.101 22.3779 263.024 22.3779C253.77 22.3779 249.778 26.5515 249.778 36.1689C249.778 45.7863 253.77 49.8994 263.024 49.8994C270.101 49.8994 274.094 47.4799 275.606 42.0966H284.376C282.683 53.0447 276.09 57.8837 263.024 57.8837C247.782 57.8837 241.31 51.3511 241.31 36.1689ZM311.579 14.4542C326.761 14.4542 333.294 20.9262 333.294 36.1689C333.294 51.3511 326.761 57.8837 311.579 57.8837C296.337 57.8837 289.865 51.3511 289.865 36.1689C289.865 20.9262 296.337 14.4542 311.579 14.4542ZM301.478 25.6442C299.361 27.8822 298.333 31.3905 298.333 36.1689C298.333 40.9474 299.361 44.4556 301.478 46.6331C303.595 48.8107 306.922 49.8994 311.579 49.8994C316.237 49.8994 319.564 48.8107 321.681 46.6331C323.798 44.4556 324.826 40.9474 324.826 36.1689C324.826 31.3905 323.798 27.8822 321.681 25.6442C319.564 23.4667 316.237 22.3779 311.579 22.3779C306.922 22.3779 303.595 23.4667 301.478 25.6442ZM340.164 57.3393V14.9985H348.692L373.492 44.879V14.9985H381.96V57.3393H373.492L348.692 27.4588V57.3393H340.164ZM388.5 44.5161H397.21C398.238 48.2058 401.686 49.8994 408.642 49.8994C415.054 49.8994 418.26 48.4477 418.26 45.6049C418.26 42.883 415.296 41.3708 406.828 39.9191C400.053 38.7094 395.396 37.1972 392.916 35.3221C390.375 33.5075 389.105 30.7856 389.105 27.0959C389.105 18.4463 394.791 14.5147 406.949 14.5147C418.804 14.5147 424.49 18.3858 425.76 27.8822H416.868C416.082 24.0716 412.876 22.4384 406.404 22.4384C400.416 22.4384 397.392 23.8296 397.392 26.612C397.392 27.8822 398.178 28.85 399.751 29.6363C401.263 30.4227 404.106 31.1485 408.219 31.9348C415.235 33.2051 420.074 34.7777 422.675 36.6528C425.276 38.5279 426.607 41.3103 426.607 45C426.607 53.7101 420.619 57.8837 407.856 57.8837C395.577 57.8837 389.77 53.952 388.5 44.5161ZM445.101 22.9828H428.649V14.9985H470.082V22.9828H453.63V57.3393H445.101V22.9828ZM484.315 42.641V57.3393H475.786V14.9985H498.469C508.873 14.9985 513.349 18.7487 513.349 27.6403C513.349 32.9026 511.655 36.5318 508.268 38.5279C511.353 40.0401 512.865 42.9434 512.865 47.117V57.3393H504.397V47.4799C504.397 44.0927 502.461 42.641 497.924 42.641H484.315ZM484.315 22.9828V34.7172H497.924C502.824 34.7172 504.88 32.9026 504.88 28.7895C504.88 24.6764 502.824 22.9828 497.924 22.9828H484.315ZM520.255 38.8908V14.9985H528.784V38.2255C528.784 46.3912 532.413 49.8994 540.7 49.8994C548.987 49.8994 552.555 46.3912 552.555 38.2255V14.9985H561.084V38.8908C561.084 52.1979 554.975 57.8837 540.7 57.8837C526.425 57.8837 520.255 52.1979 520.255 38.8908ZM567.549 36.1689C567.549 20.9262 574.021 14.4542 589.263 14.4542C602.328 14.4542 608.921 19.2931 610.555 30.1807H601.845C600.332 24.7974 596.34 22.3779 589.263 22.3779C580.009 22.3779 576.017 26.5515 576.017 36.1689C576.017 45.7863 580.009 49.8994 589.263 49.8994C596.34 49.8994 600.332 47.4799 601.845 42.0966H610.615C608.921 53.0447 602.328 57.8837 589.263 57.8837C574.021 57.8837 567.549 51.3511 567.549 36.1689ZM629.456 22.9828H613.003V14.9985H654.437V22.9828H637.984V57.3393H629.456V22.9828ZM668.67 57.3393H660.141V14.9985H668.67V57.3393ZM697.301 14.4542C712.483 14.4542 719.015 20.9262 719.015 36.1689C719.015 51.3511 712.483 57.8837 697.301 57.8837C682.058 57.8837 675.586 51.3511 675.586 36.1689C675.586 20.9262 682.058 14.4542 697.301 14.4542ZM687.199 25.6442C685.082 27.8822 684.054 31.3905 684.054 36.1689C684.054 40.9474 685.082 44.4556 687.199 46.6331C689.316 48.8107 692.643 49.8994 697.301 49.8994C701.958 49.8994 705.285 48.8107 707.402 46.6331C709.519 44.4556 710.547 40.9474 710.547 36.1689C710.547 31.3905 709.519 27.8822 707.402 25.6442C705.285 23.4667 701.958 22.3779 697.301 22.3779C692.643 22.3779 689.316 23.4667 687.199 25.6442ZM725.885 57.3393V14.9985H734.414L759.213 44.879V14.9985H767.681V57.3393H759.213L734.414 27.4588V57.3393H725.885Z" fill="url(#paint1_linear_2531_10343)"/>
</g>
<g filter="url(#filter2_d_2531_10343)">
<path d="M242.85 113.816H252.462C253.596 117.887 257.401 119.756 265.076 119.756C272.151 119.756 275.689 118.154 275.689 115.017C275.689 112.014 272.418 110.345 263.074 108.743C255.599 107.408 250.459 105.74 247.723 103.671C244.92 101.668 243.518 98.6647 243.518 94.5933C243.518 85.0489 249.792 80.7106 263.207 80.7106C276.289 80.7106 282.563 84.9822 283.965 95.461H274.153C273.286 91.2561 269.748 89.454 262.607 89.454C255.999 89.454 252.662 90.9891 252.662 94.0594C252.662 95.461 253.53 96.5289 255.265 97.3966C256.933 98.2642 260.07 99.0652 264.609 99.9328C272.351 101.334 277.691 103.07 280.561 105.139C283.431 107.208 284.899 110.278 284.899 114.35C284.899 123.961 278.292 128.566 264.209 128.566C250.66 128.566 244.252 124.228 242.85 113.816ZM291.574 107.608V81.2445H300.985V106.874C300.985 115.885 304.99 119.756 314.134 119.756C323.278 119.756 327.215 115.885 327.215 106.874V81.2445H336.626V107.608C336.626 122.292 329.885 128.566 314.134 128.566C298.382 128.566 291.574 122.292 291.574 107.608ZM354.639 90.9224V127.965H345.228V81.2445H360.512L374.729 117.487L388.812 81.2445H404.096V127.965H394.752V90.8556L379.935 127.965H369.389L354.639 90.9224ZM422.621 90.9224V127.965H413.21V81.2445H428.495L442.711 117.487L456.794 81.2445H472.079V127.965H462.735V90.8556L447.917 127.965H437.372L422.621 90.9224ZM490.604 127.965H481.193V81.2445H490.604V127.965ZM515.055 90.0547H496.901V81.2445H542.62V90.0547H524.466V127.965H515.055V90.0547Z" fill="url(#paint2_linear_2531_10343)"/>
</g>
<path d="M768.379 75.6794C770.588 75.6794 772.379 77.4702 772.379 79.6794V130.436C772.379 132.645 770.588 134.436 768.379 134.436H567.355C565.146 134.436 563.356 132.645 563.355 130.436V79.6794C563.355 77.4702 565.146 75.6794 567.355 75.6794H768.379ZM646.995 84.1218C634.407 84.1219 629.004 90.2723 629.004 104.758C629.004 119.185 634.407 125.393 646.995 125.393C659.641 125.393 664.93 119.243 664.93 104.758C664.93 90.2722 659.641 84.1218 646.995 84.1218ZM729.56 84.1218C718.121 84.1218 713.234 88.6627 713.234 99.2966V113.035C713.234 121.715 718.351 125.393 730.135 125.393C741.918 125.393 747.034 121.427 747.034 112.288C747.034 103.091 741.976 99.1823 730.02 99.1823C725.364 99.1823 722.317 100.102 720.765 101.883V99.0095C720.765 93.5487 723.352 91.1921 729.56 91.1921C735.71 91.1921 738.239 92.6863 738.239 96.3073H745.827C745.827 87.7429 740.998 84.1218 729.56 84.1218ZM604.85 84.1218C593.641 84.1218 588.755 87.9155 588.755 96.8249H596.343C596.343 92.9163 598.93 91.1921 604.678 91.1921C610.483 91.1921 613.127 92.9166 613.127 96.9977C613.127 99.4692 612.265 100.676 610.023 101.366L596.918 105.562C592.032 107.114 589.56 111.023 589.56 117.346V124.876H620.6V117.805H597.09V116.484C597.09 113.955 598.067 112.633 600.366 111.943L613.415 107.747C618.473 106.195 620.715 102.803 620.715 96.8825C620.715 87.9155 615.886 84.1218 604.85 84.1218ZM689.081 84.1218C677.872 84.1218 672.986 87.9155 672.986 96.8249H680.574C680.574 92.9164 683.16 91.1922 688.908 91.1921C694.714 91.1921 697.358 92.9166 697.358 96.9977C697.358 99.4691 696.496 100.676 694.255 101.366L681.148 105.562C676.263 107.114 673.791 111.023 673.791 117.346V124.876H704.831V117.805H681.321V116.484C681.321 113.955 682.298 112.633 684.598 111.943L697.646 107.747C702.704 106.195 704.946 102.803 704.946 96.8825C704.946 87.9155 700.117 84.1218 689.081 84.1218ZM646.995 91.1921C654.353 91.1921 657.399 95.1581 657.399 104.758C657.399 114.242 654.353 118.323 646.995 118.323C639.81 118.323 636.534 114.184 636.534 104.758C636.534 95.2732 639.81 91.1922 646.995 91.1921ZM730.135 106.309C733.411 106.309 735.825 106.77 737.262 107.689C738.699 108.666 739.446 110.161 739.446 112.288C739.446 116.484 736.63 118.323 730.135 118.323C726.859 118.323 724.444 117.863 723.007 116.886C721.512 115.909 720.765 114.415 720.765 112.288C720.765 110.161 721.512 108.666 723.007 107.689C724.444 106.769 726.858 106.309 730.135 106.309Z" fill="url(#paint3_linear_2531_10343)"/>
<defs>
<filter id="filter0_d_2531_10343" x="-0.000959396" y="-2.67029e-05" width="228.268" height="162.461" filterUnits="userSpaceOnUse" color-interpolation-filters="sRGB">
<feFlood flood-opacity="0" result="BackgroundImageFix"/>
<feColorMatrix in="SourceAlpha" type="matrix" values="0 0 0 0 0 0 0 0 0 0 0 0 0 0 0 0 0 0 127 0" result="hardAlpha"/>
<feOffset dy="6.10976"/>
<feGaussianBlur stdDeviation="7.6372"/>
<feComposite in2="hardAlpha" operator="out"/>
<feColorMatrix type="matrix" values="0 0 0 0 0.409962 0 0 0 0 0.278374 0 0 0 0 0.936317 0 0 0 0.82 0"/>
<feBlend mode="normal" in2="BackgroundImageFix" result="effect1_dropShadow_2531_10343"/>
<feBlend mode="normal" in="SourceGraphic" in2="effect1_dropShadow_2531_10343" result="shape"/>
</filter>
<filter id="filter1_d_2531_10343" x="233.257" y="9.08629" width="542.475" height="59.5331" filterUnits="userSpaceOnUse" color-interpolation-filters="sRGB">
<feFlood flood-opacity="0" result="BackgroundImageFix"/>
<feColorMatrix in="SourceAlpha" type="matrix" values="0 0 0 0 0 0 0 0 0 0 0 0 0 0 0 0 0 0 127 0" result="hardAlpha"/>
<feOffset dy="2.68393"/>
<feGaussianBlur stdDeviation="4.0259"/>
<feComposite in2="hardAlpha" operator="out"/>
<feColorMatrix type="matrix" values="0 0 0 0 0.409962 0 0 0 0 0.278374 0 0 0 0 0.936317 0 0 0 0.82 0"/>
<feBlend mode="normal" in2="BackgroundImageFix" result="effect1_dropShadow_2531_10343"/>
<feBlend mode="normal" in="SourceGraphic" in2="effect1_dropShadow_2531_10343" result="shape"/>
</filter>
<filter id="filter2_d_2531_10343" x="234.8" y="75.3427" width="315.873" height="63.9591" filterUnits="userSpaceOnUse" color-interpolation-filters="sRGB">
<feFlood flood-opacity="0" result="BackgroundImageFix"/>
<feColorMatrix in="SourceAlpha" type="matrix" values="0 0 0 0 0 0 0 0 0 0 0 0 0 0 0 0 0 0 127 0" result="hardAlpha"/>
<feOffset dy="2.68393"/>
<feGaussianBlur stdDeviation="4.0259"/>
<feComposite in2="hardAlpha" operator="out"/>
<feColorMatrix type="matrix" values="0 0 0 0 0.409962 0 0 0 0 0.278374 0 0 0 0 0.936317 0 0 0 0.82 0"/>
<feBlend mode="normal" in2="BackgroundImageFix" result="effect1_dropShadow_2531_10343"/>
<feBlend mode="normal" in="SourceGraphic" in2="effect1_dropShadow_2531_10343" result="shape"/>
</filter>
<linearGradient id="paint0_linear_2531_10343" x1="119.492" y1="8.70935" x2="119.492" y2="142.066" gradientUnits="userSpaceOnUse">
<stop stop-color="#3B7DFF"/>
<stop offset="1" stop-color="#804DE9"/>
</linearGradient>
<linearGradient id="paint1_linear_2531_10343" x1="234.84" y1="36.6156" x2="775.55" y2="36.6156" gradientUnits="userSpaceOnUse">
<stop stop-color="#3B7DFF"/>
<stop offset="1" stop-color="#A071FF"/>
</linearGradient>
<linearGradient id="paint2_linear_2531_10343" x1="238.012" y1="105.058" x2="546.612" y2="105.058" gradientUnits="userSpaceOnUse">
<stop stop-color="#3B7DFF"/>
<stop offset="1" stop-color="#A071FF"/>
</linearGradient>
<linearGradient id="paint3_linear_2531_10343" x1="742.999" y1="98.7034" x2="745.744" y2="134.436" gradientUnits="userSpaceOnUse">
<stop stop-color="#318DEE"/>
<stop offset="1" stop-color="#3FBBE8"/>
</linearGradient>
</defs>
</svg>
